<svg width="589" height="182" viewBox="0 0 589 182" fill="none" xmlns="http://www.w3.org/2000/svg">
<path d="M199.063 142.683C193.828 142.683 189.247 141.561 185.32 139.317C181.487 137.073 178.496 133.942 176.345 129.922L175.925 141H158.816V41.4351H176.766V76.7736C178.823 73.3146 181.768 70.4164 185.601 68.0792C189.434 65.6485 193.921 64.4332 199.063 64.4332C205.514 64.4332 211.076 66.0692 215.751 69.3413C220.518 72.5199 224.164 77.0541 226.689 82.9438C229.306 88.7401 230.615 95.6115 230.615 103.558C230.615 111.504 229.306 118.423 226.689 124.312C224.164 130.109 220.518 134.643 215.751 137.915C211.076 141.093 205.514 142.683 199.063 142.683ZM194.996 128.099C200.138 128.099 204.252 125.948 207.337 121.648C210.422 117.254 211.964 111.224 211.964 103.558C211.964 95.7985 210.422 89.7685 207.337 85.468C204.345 81.1676 200.278 79.0173 195.136 79.0173C191.303 79.0173 187.985 79.999 185.18 81.9622C182.469 83.832 180.365 86.5899 178.869 90.2359C177.467 93.882 176.766 98.3226 176.766 103.558C176.766 108.606 177.467 113 178.869 116.74C180.365 120.386 182.469 123.191 185.18 125.154C187.891 127.117 191.163 128.099 194.996 128.099ZM267.376 142.683C259.523 142.683 253.212 140.907 248.444 137.354C243.676 133.708 241.293 128.66 241.293 122.209C241.293 115.758 243.303 110.71 247.323 107.064C251.343 103.418 257.466 100.8 265.693 99.2108L290.514 94.3027C290.514 88.9738 289.299 85.0006 286.868 82.3829C284.437 79.6718 280.838 78.3162 276.07 78.3162C271.77 78.3162 268.357 79.3445 265.833 81.4013C263.402 83.3645 261.72 86.2159 260.785 89.9555L242.555 89.1141C244.05 81.1676 247.696 75.0908 253.493 70.8839C259.289 66.5834 266.815 64.4332 276.07 64.4332C286.728 64.4332 294.768 67.1443 300.19 72.5667C305.706 77.8955 308.464 85.5615 308.464 95.5647V122.77C308.464 124.733 308.791 126.089 309.445 126.837C310.193 127.584 311.268 127.958 312.671 127.958H315.055V141C314.494 141.187 313.559 141.327 312.25 141.421C311.035 141.514 309.773 141.561 308.464 141.561C305.379 141.561 302.621 141.093 300.19 140.159C297.759 139.13 295.89 137.401 294.581 134.97C293.272 132.446 292.618 129.034 292.618 124.733L294.16 125.855C293.412 129.127 291.776 132.072 289.252 134.69C286.821 137.214 283.736 139.177 279.997 140.579C276.257 141.982 272.05 142.683 267.376 142.683ZM271.022 129.641C275.042 129.641 278.501 128.847 281.399 127.257C284.297 125.668 286.541 123.471 288.13 120.666C289.719 117.862 290.514 114.543 290.514 110.71V106.503L271.162 110.429C267.142 111.271 264.244 112.533 262.468 114.216C260.785 115.805 259.943 117.908 259.943 120.526C259.943 123.424 260.878 125.668 262.748 127.257C264.711 128.847 267.469 129.641 271.022 129.641ZM358.424 142.683C350.945 142.683 344.447 141.093 338.931 137.915C333.416 134.643 329.115 130.062 326.03 124.172C323.038 118.282 321.543 111.411 321.543 103.558C321.543 95.705 323.038 88.8803 326.03 83.0841C329.115 77.1943 333.416 72.6134 338.931 69.3413C344.447 66.0692 350.945 64.4332 358.424 64.4332C364.781 64.4332 370.437 65.555 375.392 67.7988C380.347 70.0425 384.367 73.2678 387.452 77.4748C390.63 81.5883 392.594 86.6366 393.342 92.6199L374.831 93.6015C374.083 88.8336 372.213 85.2343 369.222 82.8036C366.323 80.2794 362.724 79.0173 358.424 79.0173C352.627 79.0173 348.14 81.2143 344.961 85.6083C341.783 89.9087 340.194 95.892 340.194 103.558C340.194 111.318 341.783 117.347 344.961 121.648C348.14 125.948 352.627 128.099 358.424 128.099C362.818 128.099 366.464 126.837 369.362 124.312C372.353 121.788 374.176 117.862 374.831 112.533L393.342 113.374C392.594 119.357 390.677 124.546 387.592 128.94C384.507 133.334 380.487 136.746 375.532 139.177C370.577 141.514 364.874 142.683 358.424 142.683ZM405.866 141V41.4351H423.816V99.9119L454.527 66.116H476.683L447.375 97.2475L477.665 141H457.472L435.595 107.905L423.816 120.386V141H405.866ZM488.033 141V66.116H504.861L505.562 86.8703L504.02 86.5899C505.142 79.3913 507.245 74.2027 510.33 71.0241C513.509 67.752 517.809 66.116 523.232 66.116H530.103V81.5415H523.091C519.258 81.5415 516.08 82.1024 513.556 83.2243C511.031 84.3462 509.115 86.1224 507.806 88.5531C506.591 90.8903 505.983 93.9754 505.983 97.8085V141H488.033ZM540.894 141V66.116H557.722L558.423 86.8703L556.881 86.5899C558.003 79.3913 560.106 74.2027 563.191 71.0241C566.37 67.752 570.67 66.116 576.093 66.116H582.964V81.5415H575.952C572.119 81.5415 568.941 82.1024 566.417 83.2243C563.892 84.3462 561.976 86.1224 560.667 88.5531C559.452 90.8903 558.844 93.9754 558.844 97.8085V141H540.894Z" fill="black"/>
<path d="M22.1371 71.565C21.2979 67.7845 21.4267 63.8533 22.5118 60.136C23.5968 56.4186 25.6029 53.0353 28.3441 50.2999C31.0852 47.5645 34.4727 45.5655 38.1923 44.4882C41.912 43.411 45.8434 43.2903 49.6221 44.1375C51.702 40.8847 54.5672 38.2079 57.9536 36.3536C61.3401 34.4994 65.1388 33.5275 68.9996 33.5275C72.8605 33.5275 76.6592 34.4994 80.0457 36.3536C83.4321 38.2079 86.2973 40.8847 88.3771 44.1375C92.1616 43.2866 96.0998 43.4067 99.8254 44.4866C103.551 45.5665 106.943 47.5711 109.686 50.3139C112.429 53.0567 114.433 56.4487 115.513 60.1743C116.593 63.8999 116.713 67.838 115.862 71.6225C119.115 73.7023 121.792 76.5675 123.646 79.954C125.5 83.3404 126.472 87.1392 126.472 91C126.472 94.8609 125.5 98.6596 123.646 102.046C121.792 105.432 119.115 108.298 115.862 110.378C116.709 114.156 116.589 118.088 115.511 121.807C114.434 125.527 112.435 128.914 109.7 131.656C106.964 134.397 103.581 136.403 99.8637 137.488C96.1463 138.573 92.2151 138.702 88.4346 137.863C86.3575 141.128 83.4901 143.816 80.0979 145.679C76.7056 147.541 72.8983 148.518 69.0284 148.518C65.1585 148.518 61.3511 147.541 57.9589 145.679C54.5667 143.816 51.6993 141.128 49.6221 137.863C45.8434 138.71 41.912 138.589 38.1923 137.512C34.4727 136.435 31.0852 134.436 28.3441 131.7C25.6029 128.965 23.5968 125.581 22.5118 121.864C21.4267 118.147 21.2979 114.215 22.1371 110.435C18.8594 108.361 16.1595 105.491 14.2887 102.093C12.4178 98.695 11.4368 94.879 11.4368 91C11.4368 87.121 12.4178 83.305 14.2887 79.907C16.1595 76.509 18.8594 73.6394 22.1371 71.565Z" stroke="#FF6358" stroke-width="11.5" stroke-linecap="round" stroke-linejoin="round"/>
<path d="M92 68H57.5C54.45 68 51.5249 69.2116 49.3683 71.3683C47.2116 73.5249 46 76.45 46 79.5C46 82.55 47.2116 85.4751 49.3683 87.6317C51.5249 89.7884 54.45 91 57.5 91H80.5C83.55 91 86.4751 92.2116 88.6317 94.3683C90.7884 96.5249 92 99.45 92 102.5C92 105.55 90.7884 108.475 88.6317 110.632C86.4751 112.788 83.55 114 80.5 114H46" stroke="#FF6358" stroke-width="11.5" stroke-linecap="round" stroke-linejoin="round"/>
<path d="M69 125.5V56.5" stroke="#FF6358" stroke-width="11.5" stroke-linecap="round" stroke-linejoin="round"/>
</svg>
